<svg xmlns="http://www.w3.org/2000/svg" viewBox="0 0 1600 900" role="img" aria-labelledby="title desc">
    <title id="title">Children building code in a lab</title>
    <desc id="desc">A colorful cartoon coding lab with children, a large code screen, and project blocks.</desc>
    <defs>
        <linearGradient id="bg" x1="0" y1="0" x2="1" y2="1">
            <stop offset="0" stop-color="#86efac"/>
            <stop offset="0.5" stop-color="#67e8f9"/>
            <stop offset="1" stop-color="#a78bfa"/>
        </linearGradient>
        <filter id="shadow" x="-20%" y="-20%" width="140%" height="140%">
            <feDropShadow dx="0" dy="18" stdDeviation="18" flood-color="#0f172a" flood-opacity="0.22"/>
        </filter>
    </defs>
    <rect width="1600" height="900" fill="url(#bg)"/>
    <circle cx="1360" cy="145" r="120" fill="#ffffff" opacity="0.24"/>
    <circle cx="250" cy="230" r="95" fill="#ffffff" opacity="0.25"/>
    <path d="M0 710 C200 650 370 735 560 684 C780 625 945 690 1140 648 C1338 605 1480 665 1600 625 L1600 900 L0 900 Z" fill="#ffffff" opacity="0.45"/>

    <g transform="translate(470 120)" filter="url(#shadow)">
        <rect x="0" y="0" width="690" height="430" rx="40" fill="#111827"/>
        <rect x="34" y="36" width="622" height="320" rx="22" fill="#172554"/>
        <circle cx="78" cy="70" r="11" fill="#fb7185"/>
        <circle cx="112" cy="70" r="11" fill="#fbbf24"/>
        <circle cx="146" cy="70" r="11" fill="#34d399"/>
        <text x="88" y="150" font-family="Inter, Arial, sans-serif" font-size="48" font-weight="800" fill="#93c5fd">function</text>
        <text x="312" y="150" font-family="Inter, Arial, sans-serif" font-size="48" font-weight="800" fill="#5eead4">spark()</text>
        <rect x="88" y="202" width="455" height="20" rx="10" fill="#a78bfa"/>
        <rect x="126" y="252" width="360" height="20" rx="10" fill="#fbbf24"/>
        <rect x="126" y="302" width="410" height="20" rx="10" fill="#34d399"/>
        <rect x="242" y="372" width="205" height="36" rx="14" fill="#e2e8f0"/>
    </g>

    <g transform="translate(270 410)">
        <ellipse cx="145" cy="330" rx="140" ry="30" fill="#0f172a" opacity="0.14"/>
        <circle cx="145" cy="84" r="68" fill="#f6b48a"/>
        <path d="M72 82 C84 1 210 -5 220 83 C176 54 130 54 72 82 Z" fill="#1e3a8a"/>
        <circle cx="122" cy="89" r="8" fill="#111827"/>
        <circle cx="168" cy="89" r="8" fill="#111827"/>
        <path d="M120 123 Q145 141 170 123" fill="none" stroke="#be123c" stroke-width="8" stroke-linecap="round"/>
        <path d="M45 170 Q145 120 245 170 L265 302 Q145 358 25 302 Z" fill="#f97316"/>
        <rect x="82" y="218" width="128" height="82" rx="14" fill="#ffffff"/>
        <path d="M115 260 L139 236 M139 284 L115 260 L139 236" fill="none" stroke="#4f46e5" stroke-width="10" stroke-linecap="round" stroke-linejoin="round"/>
        <path d="M176 236 L200 260 L176 284" fill="none" stroke="#0f766e" stroke-width="10" stroke-linecap="round" stroke-linejoin="round"/>
    </g>

    <g transform="translate(1110 430)">
        <ellipse cx="140" cy="315" rx="138" ry="28" fill="#0f172a" opacity="0.15"/>
        <circle cx="140" cy="76" r="66" fill="#f8c28b"/>
        <path d="M76 80 C82 20 138 -23 198 22 C220 38 225 75 212 104 C178 82 126 68 76 80 Z" fill="#3f3f46"/>
        <circle cx="118" cy="81" r="8" fill="#111827"/>
        <circle cx="165" cy="81" r="8" fill="#111827"/>
        <path d="M118 115 Q141 134 166 115" fill="none" stroke="#be123c" stroke-width="8" stroke-linecap="round"/>
        <path d="M42 160 Q140 112 238 160 L258 292 Q140 350 22 292 Z" fill="#7c3aed"/>
        <g transform="translate(-18 176)" filter="url(#shadow)">
            <rect x="0" y="0" width="96" height="96" rx="18" fill="#fbbf24"/>
            <rect x="70" y="48" width="96" height="96" rx="18" fill="#34d399"/>
            <rect x="140" y="0" width="96" height="96" rx="18" fill="#60a5fa"/>
        </g>
    </g>

    <g transform="translate(675 605)" filter="url(#shadow)">
        <rect x="0" y="0" width="280" height="150" rx="30" fill="#ffffff"/>
        <rect x="42" y="42" width="78" height="66" rx="14" fill="#4f46e5"/>
        <rect x="160" y="42" width="78" height="66" rx="14" fill="#0f766e"/>
        <path d="M120 75 H160" stroke="#111827" stroke-width="12" stroke-linecap="round"/>
    </g>
</svg>
